{"title":"Just Wright 2010 BRRip 720p H264 FEEL-FREE","uid":5752441,"size":2510360641,"categoryP":"video","categoryS":"hd___movies","magnet":"?xt=urn:btih:3932d9be6d349bde18ce4589fd531156f9c2a269&amp;dn=Just+Wright+2010+BRRip+720p+H264+FEEL-FREE&amp;tr=udp%3A%2F%2Ftracker.openbittorrent.com%3A80&amp;tr=udp%3A%2F%2Fopen.demonii.com%3A1337&amp;tr=udp%3A%2F%2Ftracker.coppersurfer.tk%3A6969&amp;tr=udp%3A%2F%2Fexodus.desync.com%3A6969","seeders":0,"leechers":1,"uploader":"hiest","files":-1,"time":1281447593,"description":"Genre:Comedy | Romance\nLanguage:English\nIMDb:http://www.imdb.com/title/tt1407061/\nSource:Bluray.720p.DTS.x264-CHD\n...........................................\nGeneral\nComplete name : Just Wright 2010 BRRip 720p H264 FEEL-FREE\nFormat : MPEG-4\nFormat profile : Base Media\nCodec ID : isom\nFile size : 2.34 GiB\nDuration : 1h 40mn\nOverall bit rate : 3 324 Kbps\n...........................................\nVideo\nID : 1\nFormat : MPEG-4 Visual\nFormat profile : Simple@L1\nFormat settings, BVOP : No\nFormat settings, QPel : No\nFormat settings, GMC : No warppoints\nFormat settings, Matrix : Default (H.263)\nCodec ID : 20\nDuration : 1h 40mn\nBit rate mode : Variable\nBit rate : 2 999 Kbps\nWidth : 1 280 pixels\nHeight : 720 pixels\nDisplay aspect ratio : 16:9\nFrame rate mode : Constant\nFrame rate : 30.000 fps\nResolution : 24 bits\nColorimetry : 4:2:0\nScan type : Progressive\nBits/(Pixel*Frame) : 0.108\nStream size : 2.11 GiB (90%)\n............................................\nAudio\nID : 2\nFormat : AAC\nFormat/Info : Advanced Audio Codec\nFormat version : Version 4\nFormat profile : LC\nFormat settings, SBR : No\nCodec ID : 40\nDuration : 1h 40mn\nBit rate mode : Variable\nBit rate : 320 Kbps\nChannel(s) : 6 channels\nChannel positions : Front: L C R, Rear: L R, LFE\nSampling rate : 48.0 KHz\nResolution : 16 bits\nStream size : 230 MiB (10%)\n...........................................\nPlot:\nA physical therapist falls for the basketball player she is helping recover from a career-threatening injury\n...................................................\n\nScreenshots:\n &lt;a href=&quot;\nhttp://postimg.com/image/20000/19465.jpg&quot; rel=&quot;nofollow&quot; target=&quot;_NEW&quot;&gt;\nhttp://postimg.com/image/20000/19465.jpg&lt;/a&gt;\n &lt;a href=&quot;\nhttp://postimg.com/image/20000/19466.jpg&quot; rel=&quot;nofollow&quot; target=&quot;_NEW&quot;&gt;\nhttp://postimg.com/image/20000/19466.jpg&lt;/a&gt;\n\n..............................................................","torrent":{"xt":"urn:btih:3932d9be6d349bde18ce4589fd531156f9c2a269","amp;dn":"Just+Wright+2010+BRRip+720p+H264+FEEL-FREE","amp;tr":["udp%3A%2F%2Ftracker.openbittorrent.com%3A80","udp%3A%2F%2Fopen.demonii.com%3A1337","udp%3A%2F%2Ftracker.coppersurfer.tk%3A6969","udp%3A%2F%2Fexodus.desync.com%3A6969"],"infoHash":"3932d9be6d349bde18ce4589fd531156f9c2a269","infoHashBuffer":{"type":"Buffer","data":[57,50,217,190,109,52,155,222,24,206,69,137,253,83,17,86,249,194,162,105]},"announce":[],"urlList":[]}}